<svg xmlns="http://www.w3.org/2000/svg" version="1.1" xmlns:xlink="http://www.w3.org/1999/xlink" xmlns:svgjs="http://svgjs.dev/svgjs" width="100%" height="100%" viewBox="0 0 1000 600"><rect width="1000" height="600" x="0" y="0" fill="#000000"/><g><circle r="166.66666666666666" cx="470.5923868815104" cy="492.8144752367633" fill="#993399" transform="matrix(0.411284927089301,0,0,0.411284927089301,0,97.31285737187963)"/><path d="M501.63407881986046 489.8060626989924Q523.1866628718531 499.0557133546391 523.1866628718531 525.7869044080132L523.1866628718531 525.7869044080132Q523.1866628718531 547.5490274716224 509.3870222496745 557.6967024627688Q495.5873816274959 567.8144433093987 470.5923709560879 567.8144433093987L470.5923709560879 567.8144433093987L417.9980790403227 567.8144433093987L417.9980790403227 417.8144451364339L472.0890781819207 417.8144451364339Q494.0906744016631 417.8144451364339 506.1541346418756 427.51310795983056Q518.2175948820882 437.2117707832272 518.2175948820882 457.02817445325365L518.2175948820882 457.02817445325365Q518.2175948820882 479.65838770784586 501.63407881986046 489.8060626989924L501.63407881986046 489.8060626989924ZM469.7242807651049 435.924602569011L436.97632666388284 435.924602569011L436.97632666388284 482.262658280795L469.7242807651049 482.262658280795Q484.60155058988306 482.262658280795 491.1571282390308 476.87451226779683Q497.7426400326952 471.48636625479867 497.7426400326952 457.89626464423674L497.7426400326952 457.89626464423674Q497.7426400326952 445.38379223627436 491.1571282390308 440.6541974026427Q484.60155058988306 435.924602569011 469.7242807651049 435.924602569011L469.7242807651049 435.924602569011ZM470.5923709560879 549.7042858768216Q487.6248991860653 549.7042858768216 495.1683036042627 544.5256788754401Q502.7117080224601 539.3770060185752 502.7117080224601 524.9188142170302L502.7117080224601 524.9188142170302Q502.7117080224601 510.4905565600019 495.0485670261961 505.3119495586203Q487.3854260299321 500.1333425572388 470.14335878833805 500.1333425572388L470.14335878833805 500.1333425572388L436.97632666388284 500.1333425572388L436.97632666388284 549.7042858768216L470.5923709560879 549.7042858768216Z " fill="#FFFF" transform="matrix(0.411284927089301,0,0,0.411284927089301,0,97.31285737187963)"/><path d="M787.0564909572611 567.8144415433353Q766.0206113895493 567.8144415433353 751.118991063041 558.43944157093Q736.2173707365326 549.0644415985247 728.4048707595283 532.1952286852152Q720.5923707825239 515.3260157719058 720.5923707825239 492.8144417640931L720.5923707825239 492.8144417640931Q720.5923707825239 470.3318029413805 728.4048707595283 453.4625900280711Q736.2173707365326 436.56444192966154 751.118991063041 427.1894419572563Q766.0206113895493 417.81444198485104 787.0564909572611 417.81444198485104L787.0564909572611 417.81444198485104Q808.0923705249729 417.81444198485104 822.9939908514813 427.1894419572563Q837.8956111779896 436.56444192966154 845.7081111549941 453.4625900280711Q853.5206111319984 470.3318029413805 853.5206111319984 492.8144417640931L853.5206111319984 492.8144417640931Q853.5206111319984 515.3260157719058 845.7081111549941 532.1952286852152Q837.8956111779896 549.0644415985247 822.9939908514813 558.43944157093Q808.0923705249729 567.8144415433353 787.0564909572611 567.8144415433353L787.0564909572611 567.8144415433353ZM787.0564909572611 551.1477749257258Q810.3782501478742 551.1477749257258 822.0680649282807 535.435969416417Q833.7289445235873 519.6952287220082 833.7289445235873 492.8144417640931L833.7289445235873 492.8144417640931Q833.7289445235873 465.96258999127804 822.0680649282807 450.2218492968692Q810.3782501478742 434.48110860246044 787.0564909572611 434.48110860246044L787.0564909572611 434.48110860246044Q763.734731766648 434.48110860246044 752.0449169862414 450.2218492968692Q740.384037390935 465.96258999127804 740.384037390935 492.8144417640931L740.384037390935 492.8144417640931Q740.384037390935 519.6952287220082 752.0449169862414 535.435969416417Q763.734731766648 551.1477749257258 787.0564909572611 551.1477749257258L787.0564909572611 551.1477749257258ZM992.4673699822763 565.3260156247338L977.681490396168 526.9868953672122L907.8898239349288 526.9868953672122L893.1039443488206 565.3260156247338L874.7590369954103 565.3260156247338L930.6039442384416 420.3318030885525L956.0090367562558 420.3318030885525L1011.8539439992873 565.3260156247338L992.4673699822763 565.3260156247338ZM913.9372776208323 511.3618954132035L971.6340367102646 511.3618954132035L942.9013979059486 436.36189563396147L913.9372776208323 511.3618954132035ZM1088.3007030335302 567.8144415433353Q1076.2347308468234 567.8144415433353 1063.0981568114157 564.6894415525335Q1049.9615827760085 561.5644415617317 1038.300703180702 556.1535619480286L1038.300703180702 556.1535619480286L1038.300703180702 536.3618953396176Q1052.0449161032097 543.8561082805218 1063.8215364389162 547.4151360478237Q1075.598156774623 550.9452286300257 1087.0564900742293 550.9452286300257L1087.0564900742293 550.9452286300257Q1101.4372770689374 550.9452286300257 1109.3365826012418 544.4926823527221Q1117.2648233186464 538.0401360754184 1117.2648233186464 526.7843490715122L1117.2648233186464 526.7843490715122Q1117.2648233186464 519.0875898349078 1112.8956103685437 513.8792565169049Q1108.5263974184413 508.670923198902 1101.8423696603377 505.54592320810025Q1095.1872770873338 502.4209232172985 1083.9314900834274 498.65934915429636L1083.9314900834274 498.65934915429636Q1070.38982345662 494.08758990849384 1062.1722308882154 489.92092325409146Q1053.9257031347106 485.75425659968914 1048.1097309296074 478.0285621779848Q1042.2648235394045 470.3318029413805 1042.2648235394045 458.0343492738736L1042.2648235394045 458.0343492738736Q1042.2648235394045 439.6894419204633 1055.6039438705116 428.7519419526572Q1068.943064201619 417.81444198485104 1091.425703024332 417.81444198485104L1091.425703024332 417.81444198485104Q1113.300702959944 417.81444198485104 1131.6456103133546 427.1894419572563L1131.6456103133546 427.1894419572563L1131.6456103133546 446.37346967856706Q1111.0148233370428 434.7125900832605 1091.425703024332 434.7125900832605L1091.425703024332 434.7125900832605Q1077.044916029624 434.7125900832605 1068.943064201619 440.44175673306376Q1060.8122771885146 446.170923382867 1060.8122771885146 456.1535622423726L1060.8122771885146 456.1535622423726Q1060.8122771885146 463.0401362961764 1064.978943842917 467.611895541979Q1069.1456104973195 472.2125899728816 1075.1930641832228 475.0193029275831Q1081.2115826840259 477.8260158822847 1092.2648233922323 481.79013624098695L1092.2648233922323 481.79013624098695Q1106.0090363147401 486.3618954867895 1114.776397400045 490.73110843689193Q1123.5148233002496 495.1292565720944 1129.649082541453 503.4625898808991Q1135.8122769677566 511.7959231897038 1135.8122769677566 524.9035620400111L1135.8122769677566 524.9035620400111Q1135.8122769677566 537.8375897797184 1129.9673695775537 547.5019416031238Q1124.15139737245 557.1952286116292 1113.300702959944 562.5193026700322Q1102.478943732538 567.8144415433353 1088.3007030335302 567.8144415433353L1088.3007030335302 567.8144415433353ZM1221.634035974405 567.8144415433353Q1209.568063787698 567.8144415433353 1196.4314897522909 564.6894415525335Q1183.2949157168832 561.5644415617317 1171.6340361215766 556.1535619480286L1171.6340361215766 556.1535619480286L1171.6340361215766 536.3618953396176Q1185.3782490440844 543.8561082805218 1197.1548693797913 547.4151360478237Q1208.9314897154977 550.9452286300257 1220.389823015104 550.9452286300257L1220.389823015104 550.9452286300257Q1234.7706100098121 550.9452286300257 1242.6699155421165 544.4926823527221Q1250.5981562595211 538.0401360754184 1250.5981562595211 526.7843490715122L1250.5981562595211 526.7843490715122Q1250.5981562595211 519.0875898349078 1246.2289433094188 513.8792565169049Q1241.859730359316 508.670923198902 1235.1757026012124 505.54592320810025Q1228.520610028209 502.4209232172985 1217.2648230243021 498.65934915429636L1217.2648230243021 498.65934915429636Q1203.7231563974947 494.08758990849384 1195.50556382909 489.92092325409146Q1187.2590360755858 485.75425659968914 1181.443063870482 478.0285621779848Q1175.5981564802792 470.3318029413805 1175.5981564802792 458.0343492738736L1175.5981564802792 458.0343492738736Q1175.5981564802792 439.6894419204633 1188.9372768113867 428.7519419526572Q1202.2763971424938 417.81444198485104 1224.7590359652067 417.81444198485104L1224.7590359652067 417.81444198485104Q1246.634035900819 417.81444198485104 1264.9789432542293 427.1894419572563L1264.9789432542293 427.1894419572563L1264.9789432542293 446.37346967856706Q1244.3481562779175 434.7125900832605 1224.7590359652067 434.7125900832605L1224.7590359652067 434.7125900832605Q1210.3782489704986 434.7125900832605 1202.2763971424938 440.44175673306376Q1194.1456101293893 446.170923382867 1194.1456101293893 456.1535622423726L1194.1456101293893 456.1535622423726Q1194.1456101293893 463.0401362961764 1198.3122767837917 467.611895541979Q1202.4789434381942 472.2125899728816 1208.5263971240975 475.0193029275831Q1214.544915624901 477.8260158822847 1225.598156333107 481.79013624098695L1225.598156333107 481.79013624098695Q1239.3423692556148 486.3618954867895 1248.1097303409197 490.73110843689193Q1256.8481562411248 495.1292565720944 1262.9824154823282 503.4625898808991Q1269.1456099086313 511.7959231897038 1269.1456099086313 524.9035620400111L1269.1456099086313 524.9035620400111Q1269.1456099086313 537.8375897797184 1263.3007025184284 547.5019416031238Q1257.4847303133251 557.1952286116292 1246.634035900819 562.5193026700322Q1235.8122766734127 567.8144415433353 1221.634035974405 567.8144415433353L1221.634035974405 567.8144415433353ZM1420.3898224264162 420.3318030885525Q1452.6814889980342 420.3318030885525 1469.7532482070437 439.48689562476324Q1486.8539426011534 458.67092334607395 1486.8539426011534 492.8144417640931L1486.8539426011534 492.8144417640931Q1486.8539426011534 526.9868953672122 1469.7532482070437 546.1709230885231Q1452.6814889980342 565.3260156247338 1420.3898224264162 565.3260156247338L1420.3898224264162 565.3260156247338L1371.4314892371885 565.3260156247338L1371.4314892371885 420.3318030885525L1420.3898224264162 420.3318030885525ZM1421.836581681417 547.820228639224Q1444.3481556892298 547.820228639224 1455.6907482484362 533.1500897935157Q1467.0622759927423 518.4510157627075 1467.0622759927423 492.8144417640931L1467.0622759927423 492.8144417640931Q1467.0622759927423 467.2068029505788 1455.6907482484362 452.5077289197705Q1444.3481556892298 437.83759007406223 1421.836581681417 437.83759007406223L1421.836581681417 437.83759007406223L1389.7763965905988 437.83759007406223L1389.7763965905988 547.820228639224L1421.836581681417 547.820228639224ZM1532.050701727379 565.3260156247338L1532.050701727379 420.3318030885525L1550.3956090807892 420.3318030885525L1550.3956090807892 565.3260156247338L1532.050701727379 565.3260156247338ZM1660.812275422451 567.8144415433353Q1639.7763958547393 567.8144415433353 1625.077321823931 558.43944157093Q1610.3782477931227 549.0644415985247 1602.9997755926188 532.1952286852152Q1595.5923682070147 515.3260157719058 1595.5923682070147 492.8144417640931L1595.5923682070147 492.8144417640931Q1595.5923682070147 470.3318029413805 1602.9997755926188 453.4625900280711Q1610.3782477931227 436.56444192966154 1625.077321823931 427.1894419572563Q1639.7763958547393 417.81444198485104 1660.812275422451 417.81444198485104L1660.812275422451 417.81444198485104Q1672.2706087220577 417.81444198485104 1682.8898216537632 420.65009012465265Q1693.5090345854692 423.4568030793542 1702.2763956707745 428.86768269305725L1702.2763956707745 428.86768269305725L1702.2763956707745 449.7010159650689L1701.4372753028738 449.7010159650689Q1694.5507012490698 443.0459233920652 1684.1340346130642 438.96606229296293Q1673.7173679770585 434.91513637896065 1661.4199143095516 434.91513637896065L1661.4199143095516 434.91513637896065Q1637.6930625275381 434.91513637896065 1626.5240810789319 450.3375900372693Q1615.3840348154254 465.7311085104779 1615.3840348154254 492.8144417640931L1615.3840348154254 492.8144417640931Q1615.3840348154254 520.1292564985084 1626.5240810789319 535.5227749717171Q1637.6930625275381 550.9452286300257 1661.2173680138512 550.9452286300257L1661.2173680138512 550.9452286300257Q1673.109729089958 550.9452286300257 1683.6132012812636 546.9811082713235Q1694.14560865767 543.0459230977212 1701.4372753028738 535.9568027482173L1701.4372753028738 535.9568027482173L1702.2763956707745 535.9568027482173L1702.2763956707745 556.790136020229Q1693.5090345854692 562.201015633932 1682.8898216537632 565.0077285886337Q1672.2706087220577 567.8144415433353 1660.812275422451 567.8144415433353L1660.812275422451 567.8144415433353ZM1850.8007007891574 565.3260156247338L1836.0148212030495 526.9868953672122L1766.22315474181 526.9868953672122L1751.4372751557016 565.3260156247338L1733.0923678022914 565.3260156247338L1788.9372750453226 420.3318030885525L1814.342367563137 420.3318030885525L1870.1872748061687 565.3260156247338L1850.8007007891574 565.3260156247338ZM1772.2706084277133 511.3618954132035L1829.9673675171462 511.3618954132035L1801.2347287128296 436.36189563396147L1772.2706084277133 511.3618954132035ZM1946.6340338404116 567.8144415433353Q1934.5680616537043 567.8144415433353 1921.431487618297 564.6894415525335Q1908.2949135828899 561.5644415617317 1896.6340339875833 556.1535619480286L1896.6340339875833 556.1535619480286L1896.6340339875833 536.3618953396176Q1910.3782469100906 543.8561082805218 1922.1548672457975 547.4151360478237Q1933.931487581504 550.9452286300257 1945.3898208811106 550.9452286300257L1945.3898208811106 550.9452286300257Q1959.7706078758188 550.9452286300257 1967.6699134081232 544.4926823527221Q1975.5981541255273 538.0401360754184 1975.5981541255273 526.7843490715122L1975.5981541255273 526.7843490715122Q1975.5981541255273 519.0875898349078 1971.228941175425 513.8792565169049Q1966.8597282253227 508.670923198902 1960.1757004672186 505.54592320810025Q1953.5206078942151 502.4209232172985 1942.2648208903088 498.65934915429636L1942.2648208903088 498.65934915429636Q1928.7231542635013 494.08758990849384 1920.5055616950963 489.92092325409146Q1912.259033941592 485.75425659968914 1906.4430617364887 478.0285621779848Q1900.5981543462854 470.3318029413805 1900.5981543462854 458.0343492738736L1900.5981543462854 458.0343492738736Q1900.5981543462854 439.6894419204633 1913.937274677393 428.7519419526572Q1927.2763950085005 417.81444198485104 1949.759033831213 417.81444198485104L1949.759033831213 417.81444198485104Q1971.6340337668253 417.81444198485104 1989.978941120236 427.1894419572563L1989.978941120236 427.1894419572563L1989.978941120236 446.37346967856706Q1969.3481541439241 434.7125900832605 1949.759033831213 434.7125900832605L1949.759033831213 434.7125900832605Q1935.3782468365052 434.7125900832605 1927.2763950085005 440.44175673306376Q1919.145607995396 446.170923382867 1919.145607995396 456.1535622423726L1919.145607995396 456.1535622423726Q1919.145607995396 463.0401362961764 1923.3122746497984 467.611895541979Q1927.4789413042004 472.2125899728816 1933.5263949901037 475.0193029275831Q1939.5449134909072 477.8260158822847 1950.5981541991137 481.79013624098695L1950.5981541991137 481.79013624098695Q1964.342367121621 486.3618954867895 1973.1097282069263 490.73110843689193Q1981.848154107131 495.1292565720944 1987.9824133483344 503.4625898808991Q1994.145607774638 511.7959231897038 1994.145607774638 524.9035620400111L1994.145607774638 524.9035620400111Q1994.145607774638 537.8375897797184 1988.3007003844345 547.5019416031238Q1982.4847281793313 557.1952286116292 1971.6340337668253 562.5193026700322Q1960.812274539419 567.8144415433353 1946.6340338404116 567.8144415433353L1946.6340338404116 567.8144415433353ZM2079.9673667812867 567.8144415433353Q2067.901394594579 567.8144415433353 2054.764820559172 564.6894415525335Q2041.6282465237646 561.5644415617317 2029.967366928458 556.1535619480286L2029.967366928458 556.1535619480286L2029.967366928458 536.3618953396176Q2043.7115798509658 543.8561082805218 2055.4882001866727 547.4151360478237Q2067.2648205223795 550.9452286300257 2078.7231538219858 550.9452286300257L2078.7231538219858 550.9452286300257Q2093.1039408166935 550.9452286300257 2101.003246348998 544.4926823527221Q2108.931487066403 538.0401360754184 2108.931487066403 526.7843490715122L2108.931487066403 526.7843490715122Q2108.931487066403 519.0875898349078 2104.5622741162997 513.8792565169049Q2100.1930611661974 508.670923198902 2093.509033408094 505.54592320810025Q2086.85394083509 502.4209232172985 2075.5981538311835 498.65934915429636L2075.5981538311835 498.65934915429636Q2062.056487204376 494.08758990849384 2053.838894635972 489.92092325409146Q2045.5923668824666 485.75425659968914 2039.7763946773634 478.0285621779848Q2033.93148728716 470.3318029413805 2033.93148728716 458.0343492738736L2033.93148728716 458.0343492738736Q2033.93148728716 439.6894419204633 2047.2706076182676 428.7519419526572Q2060.609727949375 417.81444198485104 2083.092366772088 417.81444198485104L2083.092366772088 417.81444198485104Q2104.9673667077004 417.81444198485104 2123.3122740611107 427.1894419572563L2123.3122740611107 427.1894419572563L2123.3122740611107 446.37346967856706Q2102.6814870847993 434.7125900832605 2083.092366772088 434.7125900832605L2083.092366772088 434.7125900832605Q2068.7115797773804 434.7125900832605 2060.609727949375 440.44175673306376Q2052.478940936271 446.170923382867 2052.478940936271 456.1535622423726L2052.478940936271 456.1535622423726Q2052.478940936271 463.0401362961764 2056.6456075906735 467.611895541979Q2060.812274245075 472.2125899728816 2066.859727930979 475.0193029275831Q2072.878246431783 477.8260158822847 2083.9314871399883 481.79013624098695L2083.9314871399883 481.79013624098695Q2097.6757000624957 486.3618954867895 2106.443061147801 490.73110843689193Q2115.1814870480057 495.1292565720944 2121.3157462892095 503.4625898808991Q2127.478940715513 511.7959231897038 2127.478940715513 524.9035620400111L2127.478940715513 524.9035620400111Q2127.478940715513 537.8375897797184 2121.63403332531 547.5019416031238Q2115.818061120206 557.1952286116292 2104.9673667077004 562.5193026700322Q2094.1456074802945 567.8144415433353 2079.9673667812867 567.8144415433353L2079.9673667812867 567.8144415433353Z " fill="#993399" transform="matrix(0.411284927089301,0,0,0.411284927089301,0,97.31285737187963)"/></g></svg>